Coordinates
version=1
nRows=31
nColumns=33
inDegrees=yes

Units are S.I. units (second, meters, Newtons, ...)
Angles are in degrees.

endheader
time	ground_thorax_rot_x	ground_thorax_rot_y	ground_thorax_rot_z	ground_thorax_tx	ground_thorax_ty	ground_thorax_tz	clav_prot_r	clav_elev_r	scapula_abduction_r	scapula_elevation_r	scapula_upward_rot_r	scapula_winging_r	shoulder_elv_r	plane_of_elev_r	axial_rot_r	elbow_flexion_r	pro_sup_r	wrist_flex_r	wrist_dev_r	clav_prot_l	clav_elev_l	scapula_abduction_l	scapula_elevation_l	scapula_upward_rot_l	scapula_winging_l	shoulder_elv_l	plane_of_elev_l	axial_rot_l	elbow_flexion_l	pro_sup_l	wrist_flex_l	wrist_dev_l	
4.9000	35.684734	18.902220	23.691016	-253.209668	826.033585	7.475246	11.580943	37.154190	35.943206	45.000000	-40.144570	2429.635012	-1011.619371	33.069958	55.833266	1102.432585	120.105580	10.176602	3.680962	8.935959	-45.000000	-36.243291	45.000000	-45.000000	-2057.795992	268.817801	138.771595	148.426994	738.179139	91.655257	-2.195267	-13.394236	
4.9100	35.663527	19.012826	23.798555	-251.900976	826.082000	7.379347	11.569791	37.190110	36.007325	45.000000	-39.935960	2429.622674	-1011.642496	33.093407	55.737825	1102.502395	120.947524	10.155124	3.645313	8.945750	-45.000000	-36.255006	45.000000	-45.000000	-2057.880457	268.859744	138.687406	148.664484	738.237182	91.920907	-2.234641	-13.415291	
4.9200	35.643687	19.129430	23.911500	-250.513600	826.107397	7.283861	11.578015	37.236415	36.072896	45.000000	-39.731794	2429.613623	-1011.666094	33.126304	55.660173	1102.564655	121.793530	10.135801	3.605249	8.942169	-45.000000	-36.280347	45.000000	-45.000000	-2057.976489	268.894768	138.614800	148.902813	738.305025	92.202432	-2.276768	-13.439274	
4.9300	35.623003	19.258357	24.036734	-249.042286	826.103703	7.188893	11.591209	37.288701	36.144595	45.000000	-39.524914	2429.602489	-1011.690305	33.156623	55.596118	1102.623875	122.643283	10.118650	3.561335	8.932438	-45.000000	-36.313991	45.000000	-45.000000	-2058.080270	268.926359	138.550269	149.140617	738.375128	92.498115	-2.319719	-13.465423	
4.9400	35.609399	19.388030	24.164566	-247.482055	826.065268	7.094675	11.631045	37.352082	36.237598	45.000000	-39.326211	2429.573469	-1011.733611	33.199572	55.554715	1102.673147	123.502674	10.105906	3.516427	8.907686	-45.000000	-36.333637	45.000000	-45.000000	-2058.199628	268.955754	138.489188	149.379360	738.452764	92.807911	-2.364262	-13.493339	
4.9500	35.592056	19.536417	24.309330	-245.828522	825.987192	7.001577	11.658420	37.413641	36.328669	45.000000	-39.117705	2429.550656	-1011.778536	33.227142	55.524399	1102.723334	124.368151	10.096234	3.469278	8.887972	-45.000000	-36.358874	45.000000	-45.000000	-2058.321771	268.978905	138.427362	149.610256	738.529444	93.127689	-2.408346	-13.524560	
4.9600	35.577738	19.695492	24.463227	-244.077551	825.865415	6.910020	11.708808	37.484837	36.429430	45.000000	-38.915629	2429.521940	-1011.837536	33.255226	55.517403	1102.770164	125.241308	10.090676	3.421272	8.850096	-45.000000	-36.379832	45.000000	-45.000000	-2058.458802	268.993079	138.372148	149.837586	738.614844	93.457072	-2.454187	-13.560171	
4.9700	35.555605	19.878175	24.636939	-242.225582	825.696913	6.820445	11.743497	37.553750	36.517805	45.000000	-38.707365	2429.507668	-1011.893899	33.269186	55.520876	1102.819169	126.110605	10.090960	3.369967	8.822156	-45.000000	-36.414428	45.000000	-45.000000	-2058.597335	269.000857	138.317441	150.054834	738.701525	93.790058	-2.499766	-13.599993	
4.9800	35.531589	20.073311	24.824248	-240.269354	825.479541	6.733202	11.790033	37.627250	36.603194	45.000000	-38.505703	2429.494961	-1011.962489	33.289671	55.539128	1102.865161	126.966009	10.099538	3.316180	8.789863	-45.000000	-36.445790	45.000000	-45.000000	-2058.745163	269.002172	138.266306	150.266038	738.792556	94.122617	-2.545628	-13.644879	
4.9900	35.498117	20.288003	25.032334	-238.206118	825.212146	6.648634	11.814269	37.693537	36.671996	45.000000	-38.298267	2429.497187	-1012.031699	33.306524	55.558856	1102.910712	127.787329	10.119264	3.257628	8.776338	-45.000000	-36.482946	45.000000	-45.000000	-2058.889848	268.999535	138.211160	150.463034	738.880085	94.444649	-2.589285	-13.694553	
5.0000	35.460893	20.514050	25.256743	-236.033199	824.893870	6.566932	11.845014	37.760126	36.736622	45.000000	-38.093960	2429.502568	-1012.111620	33.330636	55.584105	1102.950274	128.560607	10.151036	3.195559	8.759566	-45.000000	-36.515746	45.000000	-45.000000	-2059.040312	268.992137	138.157997	150.649949	738.964737	94.749225	-2.630761	-13.751512	
5.0100	35.416019	20.756280	25.502032	-233.748418	824.523714	6.488171	11.867029	37.822324	36.800853	45.000000	-37.887690	2429.511592	-1012.196559	33.351095	55.609263	1102.984587	129.265560	10.195431	3.129090	8.752061	-45.000000	-36.547700	45.000000	-45.000000	-2059.191370	268.981857	138.103757	150.822962	739.041031	95.024087	-2.668213	-13.815778	
5.0200	35.363778	21.018056	25.772393	-231.349528	824.099349	6.412000	11.898141	37.885333	36.866998	45.000000	-37.681796	2429.525209	-1012.287467	33.359099	55.633537	1103.015698	129.884751	10.250349	3.058250	8.734219	-45.000000	-36.578078	45.000000	-45.000000	-2059.348871	268.963402	138.055766	150.985972	739.108798	95.256818	-2.701600	-13.891523	
5.0300	35.302759	21.301944	26.067708	-228.834264	823.617201	6.337741	11.937087	37.950387	36.936995	45.000000	-37.475085	2429.546805	-1012.380765	33.345970	55.659183	1103.043499	130.396909	10.316376	2.982112	8.704868	-45.000000	-36.608870	45.000000	-45.000000	-2059.513182	268.935341	138.013270	151.137366	739.168884	95.429432	-2.730332	-13.980306	
5.0400	35.234680	21.601801	26.384647	-226.200191	823.072069	6.264121	11.985177	38.019188	37.004762	45.000000	-37.270926	2429.572482	-1012.482048	33.328829	55.687464	1103.061292	130.782054	10.397971	2.900555	8.664683	-45.000000	-36.638687	45.000000	-45.000000	-2059.686103	268.895989	137.978232	151.280445	739.220999	95.519922	-2.753215	-14.084668	
5.0500	35.158872	21.915147	26.720162	-223.445078	822.458336	6.189632	12.023822	38.087078	37.067753	45.000000	-37.069338	2429.601497	-1012.592896	33.313883	55.714568	1103.062821	131.005954	10.501245	2.813458	8.632256	-45.000000	-36.666356	45.000000	-45.000000	-2059.862487	268.845889	137.942375	151.408414	739.261340	95.493871	-2.766839	-14.204347	
5.0600	35.072077	22.243688	27.078236	-220.567536	821.770677	6.112580	12.033290	38.144909	37.109738	45.000000	-36.870300	2429.642984	-1012.708798	33.305022	55.726561	1103.040740	131.017212	10.632090	2.722710	8.623070	-45.000000	-36.695514	45.000000	-45.000000	-2060.033879	268.784891	137.899181	151.518006	739.283616	95.304310	-2.766817	-14.344239	
5.0700	34.972565	22.589880	27.464315	-217.567607	821.005828	6.031712	12.024384	38.193969	37.135531	45.000000	-36.677850	2429.697480	-1012.831071	33.295236	55.716907	1102.989677	130.726226	10.792480	2.634856	8.628540	-45.000000	-36.723045	45.000000	-45.000000	-2060.202161	268.710264	137.851122	151.607358	739.276341	94.881299	-2.745762	-14.510676	
5.0800	34.858631	22.949652	27.884200	-214.447205	820.162570	5.946147	12.012851	38.236785	37.150397	45.000000	-36.504126	2429.762419	-1012.961414	33.288963	55.680037	1102.902591	129.999804	10.986536	2.558063	8.638604	-45.000000	-36.745455	45.000000	-45.000000	-2060.369931	268.621624	137.807396	151.690299	739.228812	94.128687	-2.694156	-14.709805	
5.0900	34.730258	23.325318	28.341482	-211.209844	819.241931	5.855595	12.029734	38.281059	37.167683	45.000000	-36.363138	2429.830058	-1013.101389	33.281422	55.610268	1102.758503	128.567358	11.222648	2.512032	8.629048	-45.000000	-36.758663	45.000000	-45.000000	-2060.546752	268.515786	137.779451	151.769939	739.121295	92.871183	-2.591929	-14.950620	
5.1000	34.588601	23.711422	28.835982	-207.860191	818.246275	5.760067	12.104434	38.335971	37.200376	45.000000	-36.265261	2429.897732	-1013.248854	33.267114	55.504217	1102.534262	126.101377	11.511430	2.518669	8.574177	-45.000000	-36.760276	45.000000	-45.000000	-2060.741269	268.390678	137.781382	151.857414	738.939849	90.900295	-2.417384	-15.243929	
5.1100	34.432890	24.107477	29.363139	-204.402994	817.179032	5.659933	12.213281	38.395806	37.237518	45.000000	-36.195597	2429.969251	-1013.404296	33.243055	55.342284	1102.143054	121.625033	11.899924	2.644230	8.491646	-45.000000	-36.754118	45.000000	-45.000000	-2060.946619	268.240353	137.807346	151.929757	738.625381	87.643867	-2.100865	-15.611572	
5.1200	34.264936	24.503199	29.916680	-200.842905	816.043879	5.555748	12.359883	38.464118	37.283927	45.000000	-36.151394	2430.045325	-1013.568489	33.208795	55.114085	1101.536543	114.564135	12.411923	2.927770	8.376861	-45.000000	-36.735596	45.000000	-45.000000	-2061.163984	268.064589	137.861203	151.985959	738.147591	82.775674	-1.603292	-16.063517	
5.1300	34.087480	24.896314	30.480126	-197.184160	814.844603	5.448518	12.483898	38.530292	37.311590	45.000000	-36.076006	2430.132780	-1013.746465	33.152683	54.734759	1100.336661	100.659652	13.256055	3.650021	8.270485	-45.000000	-36.714804	45.000000	-45.000000	-2061.380717	267.843321	137.936992	151.958662	737.265509	73.872890	-0.634158	-16.688405	
5.1400	33.888773	25.295992	31.074861	-193.431541	813.584825	5.339861	12.589525	38.581607	37.323085	45.000000	-36.033958	2430.238725	-1013.925951	33.086424	54.220604	1098.675813	81.462543	14.332373	4.730659	8.180861	-45.000000	-36.697349	45.000000	-45.000000	-2061.588191	267.579075	138.039291	151.820601	736.080197	61.955290	0.692084	-17.434416	
5.1500	33.661316	25.708308	31.704951	-189.590211	812.268202	5.232206	12.629706	38.599683	37.290690	45.000000	-36.028412	2430.367424	-1014.106702	33.027366	53.618945	1096.666095	58.415425	15.557729	6.105664	8.152001	-45.000000	-36.694364	45.000000	-45.000000	-2061.768733	267.277512	138.150808	151.539841	734.680962	47.979288	2.285328	-18.236343	
5.1600	33.396239	26.136935	32.394804	-185.669804	810.896961	5.129604	12.646558	38.583367	37.232882	45.000000	-36.124282	2430.522347	-1014.276467	32.983871	53.064598	1094.821687	37.480846	16.626301	7.412319	8.157982	-45.000000	-36.700286	45.000000	-45.000000	-2061.923067	266.964273	138.269309	151.160680	733.414623	35.494046	3.749278	-18.930753	
5.1700	33.104012	26.572484	33.123123	-181.677496	809.474063	5.035785	12.636355	38.543023	37.145886	45.000000	-36.269374	2430.694625	-1014.448383	32.945568	52.620675	1093.194020	19.335165	17.514687	8.613857	8.192107	-45.000000	-36.710790	45.000000	-45.000000	-2062.058613	266.645939	138.386849	150.699338	732.324285	24.906112	5.050767	-19.485091	
5.1800	32.778729	27.017602	33.913178	-177.633059	807.998195	4.957511	12.636336	38.473130	37.054189	45.000000	-36.519498	2430.895572	-1014.604467	32.897823	52.372572	1092.165164	8.356733	18.016978	9.418879	8.227649	-45.000000	-36.726166	45.000000	-45.000000	-2062.170045	266.336804	138.499983	150.195787	731.659909	18.755160	5.898338	-19.800200	
5.1900	32.441320	27.453963	34.722549	-173.536036	806.475926	4.894738	12.651729	38.405265	36.961226	45.000000	-36.794534	2431.095080	-1014.775383	32.843272	52.355552	1091.627213	3.286764	18.209185	9.892645	8.251398	-45.000000	-36.728617	45.000000	-45.000000	-2062.283146	266.042442	138.608996	149.681136	731.347212	16.228629	6.371624	-19.915766	
5.2000	32.086691	27.880471	35.564465	-169.401354	804.909283	4.849881	12.695540	38.338506	36.873017	45.000000	-37.092217	2431.309101	-1014.948953	32.758020	52.525925	1091.494675	3.035675	18.159945	10.079108	8.247975	-45.000000	-36.719034	45.000000	-45.000000	-2062.390445	265.755093	138.720830	149.160455	731.314342	16.626451	6.541339	-19.880773	
